# xmcd CD database file
#
# Track frame offsets:
#	150
#	23516
#	43154
#	63595
#	83737
#	100511
#	118266
#	136945
#	153368
#	179947
#	200126
#	217867
#	237095
#	258398
#	276014
#	296618
#
# Disc length: 4100 seconds
#
# Revision: 1
# Processed by: cddbd v1.5.1PL0 Copyright (c) Steve Scherf et al.
# Submitted via: CDex 1.51
#
DISCID=e8100210
DTITLE=Blue Xmas (Various) - Christmas Blues Instrumentals
DYEAR=1900
DGENRE=
TTITLE0=White Christmas
TTITLE1=Winter Wonderland
TTITLE2=I'll Be Home for Christmas
TTITLE3=Silver Bells
TTITLE4=Sleigh Ride
TTITLE5=We Three Kings
TTITLE6=God Rest Ye Merry Gentlemen
TTITLE7=Let It Snow
TTITLE8=Have Yourself A Merry Little Christmas
TTITLE9=Rockin' Around The Christmas Tree
TTITLE10=Little Drummer Boy
TTITLE11=Deck The Halls
TTITLE12=Blue Christmas
TTITLE13=I Saw Mommy Kissing Santa Claus
TTITLE14=The Christmas Song
TTITLE15=We Wish You A Merry Christmas
EXTD=
EXTT0=
EXTT1=
EXTT2=
EXTT3=
EXTT4=
EXTT5=
EXTT6=
EXTT7=
EXTT8=
EXTT9=
EXTT10=
EXTT11=
EXTT12=
EXTT13=
EXTT14=
EXTT15=
PLAYORDER=
